# xmcd
#
# Track frame offsets:
#	150
#	20291
#	34267
#	58109
#	69406
#	89997
#	111778
#	127497
#	148091
#	162422
#	181688
#	201321
#
# Disc length: 2883 seconds
#
# Revision: 4
# Processed by: cddbd v1.5.2PL0 Copyright (c) Steve Scherf et al.
# Submitted via: audiograbber 1.83.01
#
DISCID=b80b410c
DTITLE=Burch, Paul and The WPA Ballclub - Blue notes
DYEAR=2000
DGENRE=Country
TTITLE0=Willpower
TTITLE1=Forever yours
TTITLE2=Isolda
TTITLE3=Long distance call
TTITLE4=Tonight, tonight
TTITLE5=How do I know
TTITLE6=Hard women blues
TTITLE7=Hitting bottom
TTITLE8=Oh my darlin'
TTITLE9=Carter Cain
TTITLE10=Foolish things the lonely do
TTITLE11=Head over heels
EXTD=
EXTT0=
EXTT1=
EXTT2=
EXTT3=
EXTT4=
EXTT5=
EXTT6=
EXTT7=
EXTT8=
EXTT9=
EXTT10=
EXTT11=
PLAYORDER=
